<?xml version="1.0" encoding="UTF-8"?>
<svg xmlns="http://www.w3.org/2000/svg" xmlns:xlink="http://www.w3.org/1999/xlink" width="72pt" height="72pt" viewBox="0 0 72 72" version="1.1">
<g id="surface1">
<path style=" stroke:none;fill-rule:nonzero;fill:rgb(70.980392%,0%,0%);fill-opacity:1;" d="M 22.011719 13.136719 C 22.011719 22.101562 22.011719 22.207031 22.144531 22.371094 C 22.3125 22.585938 22.308594 22.671875 22.105469 22.742188 C 22 22.785156 18.828125 22.808594 13.503906 22.808594 L 5.074219 22.808594 L 4.859375 22.601562 L 4.644531 22.390625 L 4.644531 46.734375 L 10.019531 46.734375 C 13.523438 46.734375 15.390625 46.714844 15.390625 46.667969 C 15.390625 46.609375 16.695312 45.914062 16.734375 45.960938 C 16.75 45.972656 16.789062 46.347656 16.828125 46.796875 C 17.0625 49.320312 17.527344 51.976562 17.996094 53.386719 C 18.460938 54.808594 19.429688 56.21875 20.96875 57.710938 C 22.367188 59.0625 23.460938 59.941406 28.535156 63.753906 C 30.410156 65.171875 32.519531 66.777344 33.21875 67.332031 C 33.921875 67.890625 34.503906 68.34375 34.503906 68.335938 C 34.511719 68.335938 34.464844 68.046875 34.398438 67.707031 C 34.335938 67.367188 34.183594 66.285156 34.074219 65.316406 C 33.960938 64.339844 33.808594 63.144531 33.738281 62.660156 C 33.199219 59.070312 32.121094 56.40625 30.546875 54.800781 C 29.929688 54.179688 29.496094 53.859375 28.621094 53.378906 C 27.300781 52.664062 26.128906 51.792969 24.371094 50.238281 C 23.0625 49.078125 22.941406 49.027344 22.5625 49.433594 C 22.386719 49.609375 22.371094 49.664062 22.371094 50.140625 C 22.371094 50.640625 22.386719 50.679688 22.753906 51.398438 C 23.265625 52.410156 23.820312 53.128906 25.054688 54.386719 C 26.054688 55.40625 26.089844 55.449219 25.8125 55.351562 C 25.046875 55.082031 23.917969 54.289062 23.0625 53.417969 C 21.816406 52.152344 20.910156 50.566406 20.339844 48.667969 C 20.078125 47.78125 19.378906 44.890625 19.417969 44.851562 C 19.429688 44.832031 19.75 44.722656 20.117188 44.597656 C 23.246094 43.535156 26.292969 42.976562 29.445312 42.886719 L 30.878906 42.847656 L 30.839844 43.003906 C 30.78125 43.214844 29.960938 46.777344 29.917969 47.027344 C 29.878906 47.21875 29.917969 47.257812 31.222656 48.261719 C 31.960938 48.832031 32.566406 49.328125 32.566406 49.363281 C 32.566406 49.402344 32.183594 50.136719 31.71875 51 L 30.875 52.566406 L 32.085938 53.8125 C 32.753906 54.492188 33.320312 55.058594 33.34375 55.058594 C 33.371094 55.058594 33.523438 54.210938 33.671875 53.167969 C 33.828125 52.132812 34.132812 50.179688 34.335938 48.832031 L 34.714844 46.371094 L 34.222656 45.566406 C 33.730469 44.765625 33.730469 44.761719 33.847656 44.617188 C 33.921875 44.539062 34.335938 44.109375 34.78125 43.664062 L 35.578125 42.859375 L 36.5625 43.652344 C 37.105469 44.089844 37.546875 44.472656 37.546875 44.503906 C 37.546875 44.53125 37.328125 44.929688 37.066406 45.390625 L 36.589844 46.222656 L 37.210938 50.605469 C 37.558594 53.019531 37.855469 54.992188 37.875 54.992188 C 37.898438 54.992188 38.484375 54.472656 39.171875 53.839844 C 40.371094 52.742188 40.429688 52.679688 40.34375 52.539062 C 39.957031 51.945312 38.589844 49.335938 38.632812 49.296875 C 38.667969 49.261719 39.328125 48.851562 40.101562 48.371094 C 40.875 47.894531 41.519531 47.492188 41.53125 47.488281 C 41.542969 47.472656 41.347656 46.777344 41.09375 45.941406 C 40.84375 45.09375 40.535156 44.058594 40.410156 43.640625 L 40.179688 42.878906 L 40.738281 42.832031 C 41.800781 42.742188 44.558594 42.925781 46.394531 43.199219 C 47.765625 43.410156 50.589844 44.027344 50.707031 44.136719 C 50.785156 44.214844 49.664062 48.679688 49.363281 49.484375 C 48.5625 51.640625 47.140625 53.511719 45.445312 54.652344 C 45.195312 54.820312 44.964844 54.984375 44.945312 55.011719 C 44.925781 55.042969 44.886719 55.0625 44.859375 55.0625 C 44.839844 55.058594 44.730469 55.101562 44.617188 55.160156 C 44.507812 55.214844 44.296875 55.304688 44.152344 55.359375 C 43.910156 55.445312 43.976562 55.359375 44.960938 54.347656 C 46.164062 53.109375 46.769531 52.324219 47.265625 51.320312 C 47.582031 50.683594 47.605469 50.601562 47.605469 50.160156 C 47.605469 49.789062 47.582031 49.65625 47.46875 49.503906 C 47.300781 49.277344 47.089844 49.171875 46.894531 49.203125 C 46.808594 49.222656 46.363281 49.570312 45.898438 49.984375 C 43.84375 51.8125 42.71875 52.636719 41 53.574219 C 39.308594 54.507812 37.914062 56.40625 37.09375 58.925781 C 36.5625 60.554688 36.308594 61.90625 35.941406 65.019531 C 35.730469 66.835938 35.574219 67.917969 35.46875 68.257812 C 35.441406 68.347656 35.546875 68.296875 35.816406 68.082031 C 36.984375 67.144531 39.105469 65.511719 41.964844 63.363281 C 45.613281 60.613281 47.320312 59.265625 48.464844 58.214844 C 50.195312 56.644531 51.335938 55.128906 51.867188 53.714844 C 52.4375 52.210938 53.140625 47.925781 53.222656 45.496094 L 53.242188 44.9375 L 52 44.53125 C 51.152344 44.253906 50.761719 44.097656 50.765625 44.039062 C 50.820312 43.664062 51.566406 40.125 51.78125 39.246094 C 52.089844 37.964844 52.410156 37.234375 52.707031 37.132812 C 52.929688 37.058594 52.980469 37.117188 53.082031 37.589844 C 53.257812 38.449219 53.296875 39.128906 53.308594 41.96875 L 53.328125 44.976562 L 54.136719 45.296875 C 54.582031 45.480469 55.222656 45.757812 55.5625 45.914062 L 56.179688 46.207031 L 65.925781 46.207031 L 65.925781 22.277344 L 65.757812 22.410156 C 65.578125 22.546875 65.578125 22.546875 57.214844 22.546875 C 49.75 22.546875 48.832031 22.535156 48.703125 22.441406 C 48.511719 22.3125 48.519531 22.113281 48.722656 21.984375 L 48.886719 21.878906 L 48.886719 12.984375 C 48.886719 8.09375 48.859375 4.128906 48.832031 4.167969 C 48.6875 4.390625 48.648438 4.390625 35.460938 4.390625 L 22.425781 4.390625 L 22.273438 4.226562 C 22.1875 4.136719 22.097656 4.0625 22.066406 4.0625 C 22.039062 4.0625 22.011719 8.148438 22.011719 13.136719 Z M 34.019531 12.289062 C 34.113281 14.339844 34.28125 16.03125 34.464844 16.660156 C 34.617188 17.191406 35.074219 17.492188 35.59375 17.410156 C 35.933594 17.351562 36.339844 17.140625 36.457031 16.957031 C 36.582031 16.761719 36.675781 15.921875 36.757812 14.191406 C 36.890625 11.339844 36.898438 11.273438 36.988281 11.273438 C 37.429688 11.273438 39.597656 11.824219 39.714844 11.96875 C 39.859375 12.140625 39.90625 12.570312 39.972656 14.320312 C 40.035156 16.089844 40.078125 16.453125 40.214844 16.496094 C 40.324219 16.539062 40.644531 15.941406 41.027344 14.976562 C 41.425781 13.980469 41.847656 13.109375 41.929688 13.109375 C 42.160156 13.109375 43.667969 14.542969 44.238281 15.304688 C 45.574219 17.085938 46.453125 19.445312 46.730469 22.023438 L 46.808594 22.75 L 47.503906 23.328125 C 47.882812 23.640625 48.328125 23.996094 48.484375 24.121094 L 48.765625 24.335938 L 48.519531 24.492188 C 47.992188 24.816406 46.039062 25.757812 45.234375 26.074219 C 42.070312 27.320312 39.191406 27.863281 35.84375 27.871094 C 32.324219 27.871094 29.183594 27.28125 25.75 25.976562 C 24.941406 25.667969 22.910156 24.730469 22.609375 24.527344 C 22.535156 24.472656 22.640625 24.316406 23.105469 23.78125 C 23.433594 23.414062 23.820312 22.992188 23.972656 22.855469 L 24.242188 22.613281 L 24.304688 21.808594 C 24.542969 18.898438 25.5 16.542969 27.164062 14.753906 C 27.707031 14.171875 28.652344 13.371094 28.796875 13.371094 C 28.945312 13.371094 29.308594 13.882812 30.042969 15.132812 C 30.433594 15.796875 30.855469 16.445312 30.980469 16.578125 L 31.207031 16.8125 L 31.292969 16.617188 C 31.40625 16.355469 31.40625 15.972656 31.28125 14.21875 C 31.175781 12.691406 31.1875 12.082031 31.332031 11.980469 C 31.601562 11.8125 33.613281 11.265625 33.875 11.300781 C 33.953125 11.308594 33.980469 11.492188 34.019531 12.289062 Z M 28.273438 28.667969 C 28.597656 28.753906 28.945312 28.859375 29.046875 28.898438 C 29.339844 29.015625 30.867188 29.277344 31.875 29.390625 C 34.597656 29.699219 37.757812 29.699219 40.101562 29.390625 C 41.136719 29.257812 41.761719 29.132812 42.730469 28.867188 C 43.851562 28.5625 44.171875 28.503906 44.820312 28.503906 C 45.496094 28.503906 46.007812 28.644531 46.191406 28.886719 C 46.304688 29.023438 46.328125 29.148438 46.328125 29.574219 C 46.328125 30.335938 46.210938 31.296875 46.058594 31.820312 C 45.941406 32.222656 45.871094 32.332031 45.511719 32.6875 C 44.914062 33.269531 44.761719 33.511719 43.882812 35.320312 C 42.808594 37.542969 42.382812 38.171875 41.164062 39.339844 C 40.003906 40.453125 38.671875 41.273438 37.382812 41.667969 C 36.859375 41.824219 36.695312 41.84375 35.84375 41.835938 C 34.714844 41.835938 34.183594 41.71875 33.226562 41.261719 C 31.757812 40.550781 30.65625 39.5625 28.914062 37.394531 C 28.03125 36.296875 27.398438 35.355469 26.953125 34.46875 C 26.707031 33.972656 26.476562 33.625 26.167969 33.285156 C 25.210938 32.226562 25.039062 31.828125 24.941406 30.40625 C 24.875 29.402344 24.875 29.378906 25.019531 29.148438 C 25.199219 28.859375 25.480469 28.675781 25.953125 28.542969 C 26.457031 28.402344 27.503906 28.460938 28.273438 28.667969 Z M 17.476562 37.320312 C 17.726562 37.601562 17.902344 38.082031 18.179688 39.195312 C 18.40625 40.121094 19.339844 44.519531 19.351562 44.722656 C 19.359375 44.820312 19.1875 44.910156 18.570312 45.152344 C 18.140625 45.324219 17.570312 45.558594 17.304688 45.679688 C 17.039062 45.796875 16.808594 45.875 16.789062 45.855469 C 16.605469 45.671875 16.605469 39.398438 16.789062 38.148438 C 16.914062 37.3125 16.984375 37.097656 17.15625 37.097656 C 17.222656 37.097656 17.367188 37.195312 17.476562 37.320312 Z M 17.476562 37.320312 "/>
</g>
</svg>
